<svg width="33" height="33" viewBox="0 0 33 33" fill="none" xmlns="http://www.w3.org/2000/svg">
<path d="M0 24.7503C0 25.7228 0.386308 26.6554 1.07394 27.3431C1.76158 28.0307 2.69421 28.417 3.66667 28.417H29.3333C30.3058 28.417 31.2384 28.0307 31.9261 27.3431C32.6137 26.6554 33 25.7228 33 24.7503V20.167H0V24.7503Z" fill="#138808"/>
<path d="M33 12.833V8.24967C33 7.27721 32.6137 6.34458 31.9261 5.65695C31.2384 4.96932 30.3058 4.58301 29.3333 4.58301H3.66667C2.69421 4.58301 1.76158 4.96932 1.07394 5.65695C0.386308 6.34458 0 7.27721 0 8.24967L0 12.833H33Z" fill="#FF9933"/>
<path d="M0 12.5283H33V20.4731H0V12.5283Z" fill="#F7F7F7"/>
<path d="M16.4997 20.1663C18.5247 20.1663 20.1663 18.5247 20.1663 16.4997C20.1663 14.4746 18.5247 12.833 16.4997 12.833C14.4746 12.833 12.833 14.4746 12.833 16.4997C12.833 18.5247 14.4746 20.1663 16.4997 20.1663Z" fill="#000080"/>
<path d="M16.5 19.5938C18.2086 19.5938 19.5938 18.2086 19.5938 16.5C19.5938 14.7914 18.2086 13.4062 16.5 13.4062C14.7914 13.4062 13.4062 14.7914 13.4062 16.5C13.4062 18.2086 14.7914 19.5938 16.5 19.5938Z" fill="#F7F7F7"/>
<path d="M16.5914 15.3539L16.4997 15.9497L16.4081 15.3539L16.4997 13.5664L16.5914 15.3539ZM15.7407 13.6663L16.1147 15.4162L16.3577 15.9681L16.2917 15.3695L15.7407 13.6663ZM15.0331 13.9597L15.8471 15.5528L16.2247 16.0231L16.0066 15.4612L15.0331 13.9597ZM14.4253 14.4253L15.6243 15.7545L16.1111 16.1111L15.7545 15.6243L14.4253 14.4253ZM13.9597 15.0331L15.4612 16.0066L16.0231 16.2247L15.5528 15.8471L13.9597 15.0331ZM13.6663 15.7407L15.3695 16.2917L15.9681 16.3577L15.4162 16.1147L13.6663 15.7407ZM13.5664 16.4997L15.3539 16.5914L15.9497 16.4997L15.3539 16.4081L13.5664 16.4997ZM13.6663 17.2587L15.4162 16.8847L15.9681 16.6418L15.3695 16.7078L13.6663 17.2587ZM13.9597 17.9664L15.5528 17.1524L16.0231 16.7747L15.4612 16.9929L13.9597 17.9664ZM14.4253 18.5742L15.7545 17.3752L16.1111 16.8884L15.6243 17.245L14.4253 18.5742ZM15.0331 19.0398L16.0066 17.5383L16.2247 16.9764L15.8471 17.4467L15.0331 19.0398ZM15.7407 19.3332L16.2917 17.63L16.3577 17.0314L16.1147 17.5832L15.7407 19.3332ZM16.4997 19.4331L16.5914 17.6456L16.4997 17.0497L16.4081 17.6456L16.4997 19.4331ZM17.2587 19.3332L16.8847 17.5832L16.6418 17.0314L16.7078 17.63L17.2587 19.3332ZM17.9664 19.0398L17.1524 17.4467L16.7747 16.9764L16.9929 17.5383L17.9664 19.0398ZM18.5742 18.5742L17.3752 17.245L16.8884 16.8884L17.245 17.3752L18.5742 18.5742ZM19.0398 17.9664L17.5383 16.9929L16.9764 16.7747L17.4467 17.1524L19.0398 17.9664ZM19.3332 17.2587L17.63 16.7078L17.0314 16.6418L17.5832 16.8847L19.3332 17.2587ZM19.4331 16.4997L17.6456 16.4081L17.0497 16.4997L17.6456 16.5914L19.4331 16.4997ZM19.3332 15.7407L17.5832 16.1147L17.0314 16.3577L17.63 16.2917L19.3332 15.7407ZM19.0398 15.0331L17.4467 15.8471L16.9764 16.2247L17.5383 16.0066L19.0398 15.0331ZM18.5742 14.4253L17.245 15.6243L16.8884 16.1111L17.3752 15.7545L18.5742 14.4253ZM17.9664 13.9597L16.9929 15.4612L16.7747 16.0231L17.1524 15.5528L17.9664 13.9597ZM17.2587 13.6663L16.7078 15.3695L16.6418 15.9681L16.8847 15.4162L17.2587 13.6663Z" fill="#6666B3"/>
<path d="M16.0964 13.6206C16.1977 13.6206 16.2798 13.5385 16.2798 13.4372C16.2798 13.336 16.1977 13.2539 16.0964 13.2539C15.9952 13.2539 15.9131 13.336 15.9131 13.4372C15.9131 13.5385 15.9952 13.6206 16.0964 13.6206Z" fill="#000080"/>
<path d="M15.3171 13.8296C15.4184 13.8296 15.5005 13.7475 15.5005 13.6462C15.5005 13.545 15.4184 13.4629 15.3171 13.4629C15.2159 13.4629 15.1338 13.545 15.1338 13.6462C15.1338 13.7475 15.2159 13.8296 15.3171 13.8296Z" fill="#000080"/>
<path d="M14.6189 14.2319C14.7201 14.2319 14.8022 14.1498 14.8022 14.0486C14.8022 13.9473 14.7201 13.8652 14.6189 13.8652C14.5176 13.8652 14.4355 13.9473 14.4355 14.0486C14.4355 14.1498 14.5176 14.2319 14.6189 14.2319Z" fill="#000080"/>
<path d="M14.0486 14.8022C14.1498 14.8022 14.2319 14.7201 14.2319 14.6189C14.2319 14.5176 14.1498 14.4355 14.0486 14.4355C13.9473 14.4355 13.8652 14.5176 13.8652 14.6189C13.8652 14.7201 13.9473 14.8022 14.0486 14.8022Z" fill="#000080"/>
<path d="M13.6462 15.5005C13.7475 15.5005 13.8296 15.4184 13.8296 15.3171C13.8296 15.2159 13.7475 15.1338 13.6462 15.1338C13.545 15.1338 13.4629 15.2159 13.4629 15.3171C13.4629 15.4184 13.545 15.5005 13.6462 15.5005Z" fill="#000080"/>
<path d="M13.4372 16.2798C13.5385 16.2798 13.6206 16.1977 13.6206 16.0964C13.6206 15.9952 13.5385 15.9131 13.4372 15.9131C13.336 15.9131 13.2539 15.9952 13.2539 16.0964C13.2539 16.1977 13.336 16.2798 13.4372 16.2798Z" fill="#000080"/>
<path d="M13.4372 17.0864C13.5385 17.0864 13.6206 17.0043 13.6206 16.9031C13.6206 16.8018 13.5385 16.7197 13.4372 16.7197C13.336 16.7197 13.2539 16.8018 13.2539 16.9031C13.2539 17.0043 13.336 17.0864 13.4372 17.0864Z" fill="#000080"/>
<path d="M13.6462 17.8657C13.7475 17.8657 13.8296 17.7836 13.8296 17.6824C13.8296 17.5811 13.7475 17.499 13.6462 17.499C13.545 17.499 13.4629 17.5811 13.4629 17.6824C13.4629 17.7836 13.545 17.8657 13.6462 17.8657Z" fill="#000080"/>
<path d="M14.0486 18.5639C14.1498 18.5639 14.2319 18.4819 14.2319 18.3806C14.2319 18.2793 14.1498 18.1973 14.0486 18.1973C13.9473 18.1973 13.8652 18.2793 13.8652 18.3806C13.8652 18.4819 13.9473 18.5639 14.0486 18.5639Z" fill="#000080"/>
<path d="M14.6189 19.1342C14.7201 19.1342 14.8022 19.0522 14.8022 18.9509C14.8022 18.8497 14.7201 18.7676 14.6189 18.7676C14.5176 18.7676 14.4355 18.8497 14.4355 18.9509C14.4355 19.0522 14.5176 19.1342 14.6189 19.1342Z" fill="#000080"/>
<path d="M15.3171 19.5366C15.4184 19.5366 15.5005 19.4545 15.5005 19.3533C15.5005 19.252 15.4184 19.1699 15.3171 19.1699C15.2159 19.1699 15.1338 19.252 15.1338 19.3533C15.1338 19.4545 15.2159 19.5366 15.3171 19.5366Z" fill="#000080"/>
<path d="M16.0964 19.7456C16.1977 19.7456 16.2798 19.6635 16.2798 19.5622C16.2798 19.461 16.1977 19.3789 16.0964 19.3789C15.9952 19.3789 15.9131 19.461 15.9131 19.5622C15.9131 19.6635 15.9952 19.7456 16.0964 19.7456Z" fill="#000080"/>
<path d="M16.9031 19.7456C17.0043 19.7456 17.0864 19.6635 17.0864 19.5622C17.0864 19.461 17.0043 19.3789 16.9031 19.3789C16.8018 19.3789 16.7197 19.461 16.7197 19.5622C16.7197 19.6635 16.8018 19.7456 16.9031 19.7456Z" fill="#000080"/>
<path d="M17.6824 19.5366C17.7836 19.5366 17.8657 19.4545 17.8657 19.3533C17.8657 19.252 17.7836 19.1699 17.6824 19.1699C17.5811 19.1699 17.499 19.252 17.499 19.3533C17.499 19.4545 17.5811 19.5366 17.6824 19.5366Z" fill="#000080"/>
<path d="M18.3806 19.1342C18.4819 19.1342 18.5639 19.0522 18.5639 18.9509C18.5639 18.8497 18.4819 18.7676 18.3806 18.7676C18.2793 18.7676 18.1973 18.8497 18.1973 18.9509C18.1973 19.0522 18.2793 19.1342 18.3806 19.1342Z" fill="#000080"/>
<path d="M18.9509 18.5639C19.0522 18.5639 19.1342 18.4819 19.1342 18.3806C19.1342 18.2793 19.0522 18.1973 18.9509 18.1973C18.8497 18.1973 18.7676 18.2793 18.7676 18.3806C18.7676 18.4819 18.8497 18.5639 18.9509 18.5639Z" fill="#000080"/>
<path d="M19.3533 17.8657C19.4545 17.8657 19.5366 17.7836 19.5366 17.6824C19.5366 17.5811 19.4545 17.499 19.3533 17.499C19.252 17.499 19.1699 17.5811 19.1699 17.6824C19.1699 17.7836 19.252 17.8657 19.3533 17.8657Z" fill="#000080"/>
<path d="M19.5622 17.0864C19.6635 17.0864 19.7456 17.0043 19.7456 16.9031C19.7456 16.8018 19.6635 16.7197 19.5622 16.7197C19.461 16.7197 19.3789 16.8018 19.3789 16.9031C19.3789 17.0043 19.461 17.0864 19.5622 17.0864Z" fill="#000080"/>
<path d="M19.5622 16.2798C19.6635 16.2798 19.7456 16.1977 19.7456 16.0964C19.7456 15.9952 19.6635 15.9131 19.5622 15.9131C19.461 15.9131 19.3789 15.9952 19.3789 16.0964C19.3789 16.1977 19.461 16.2798 19.5622 16.2798Z" fill="#000080"/>
<path d="M19.3533 15.5005C19.4545 15.5005 19.5366 15.4184 19.5366 15.3171C19.5366 15.2159 19.4545 15.1338 19.3533 15.1338C19.252 15.1338 19.1699 15.2159 19.1699 15.3171C19.1699 15.4184 19.252 15.5005 19.3533 15.5005Z" fill="#000080"/>
<path d="M18.9509 14.8022C19.0522 14.8022 19.1342 14.7201 19.1342 14.6189C19.1342 14.5176 19.0522 14.4355 18.9509 14.4355C18.8497 14.4355 18.7676 14.5176 18.7676 14.6189C18.7676 14.7201 18.8497 14.8022 18.9509 14.8022Z" fill="#000080"/>
<path d="M18.3806 14.2319C18.4819 14.2319 18.5639 14.1498 18.5639 14.0486C18.5639 13.9473 18.4819 13.8652 18.3806 13.8652C18.2793 13.8652 18.1973 13.9473 18.1973 14.0486C18.1973 14.1498 18.2793 14.2319 18.3806 14.2319Z" fill="#000080"/>
<path d="M17.6824 13.8296C17.7836 13.8296 17.8657 13.7475 17.8657 13.6462C17.8657 13.545 17.7836 13.4629 17.6824 13.4629C17.5811 13.4629 17.499 13.545 17.499 13.6462C17.499 13.7475 17.5811 13.8296 17.6824 13.8296Z" fill="#000080"/>
<path d="M16.9031 13.6206C17.0043 13.6206 17.0864 13.5385 17.0864 13.4372C17.0864 13.336 17.0043 13.2539 16.9031 13.2539C16.8018 13.2539 16.7197 13.336 16.7197 13.4372C16.7197 13.5385 16.8018 13.6206 16.9031 13.6206Z" fill="#000080"/>
<path d="M16.4998 17.3248C16.9554 17.3248 17.3248 16.9554 17.3248 16.4998C17.3248 16.0442 16.9554 15.6748 16.4998 15.6748C16.0442 15.6748 15.6748 16.0442 15.6748 16.4998C15.6748 16.9554 16.0442 17.3248 16.4998 17.3248Z" fill="#000080"/>
</svg>
