<svg width="33" height="33" viewBox="0 0 33 33" fill="none" xmlns="http://www.w3.org/2000/svg">
<path d="M29.3333 4.58301H8.25V12.833H33V8.24967C33 7.27721 32.6137 6.34458 31.9261 5.65695C31.2384 4.96932 30.3058 4.58301 29.3333 4.58301Z" fill="#068241"/>
<path d="M8.25 12.833H33V20.1663H8.25V12.833Z" fill="#EEEEEE"/>
<path d="M8.25 28.417H29.3333C30.3058 28.417 31.2384 28.0307 31.9261 27.3431C32.6137 26.6554 33 25.7228 33 24.7503V20.167H8.25V28.417Z" fill="#141414"/>
<path d="M3.66667 4.58301C2.69421 4.58301 1.76158 4.96932 1.07394 5.65695C0.386308 6.34458 0 7.27721 0 8.24967L0 24.7497C0 25.7221 0.386308 26.6548 1.07394 27.3424C1.76158 28.03 2.69421 28.4163 3.66667 28.4163H8.25V4.58301H3.66667Z" fill="#EC2028"/>
</svg>
