<svg width="33" height="33" viewBox="0 0 33 33" fill="none" xmlns="http://www.w3.org/2000/svg">
<path d="M32.4912 6.41634C31.856 5.32459 30.6873 4.58301 29.3333 4.58301H16.5V6.41634H32.4912ZM0 22.9163H33V24.7497H0V22.9163ZM16.5 15.583H33V17.4163H16.5V15.583ZM16.5 11.9163H33V13.7497H16.5V11.9163ZM0 19.2497H33V21.083H0V19.2497ZM3.66667 28.4163H29.3333C30.6873 28.4163 31.856 27.6748 32.4912 26.583H0.50875C1.144 27.6748 2.31275 28.4163 3.66667 28.4163ZM16.5 8.24967H33V10.083H16.5V8.24967Z" fill="#B22334"/>
<path d="M0.0623333 25.3727C0.0776111 25.4583 0.0956389 25.5429 0.116417 25.6267C0.140861 25.7183 0.168972 25.8088 0.20075 25.898C0.282333 26.1354 0.381333 26.3646 0.506 26.5791L0.50875 26.5837H32.4912L32.4931 26.58C32.6173 26.3645 32.7193 26.1369 32.7974 25.9007C32.8569 25.7285 32.9035 25.552 32.9368 25.3727C32.9743 25.1711 33 24.9639 33 24.7503H0C0 24.9639 0.0256667 25.1702 0.0623333 25.3727ZM0 21.0837H33V22.917H0V21.0837ZM0 17.417V19.2503H33V17.417H16.5H0ZM16.5 13.7503H33V15.5837H16.5V13.7503ZM16.5 10.0837H33V11.917H16.5V10.0837ZM0.117333 7.37399C0.14025 7.28049 0.172333 7.19158 0.201667 7.10174C0.170038 7.19137 0.141905 7.28218 0.117333 7.37399ZM16.5 8.25033H33C33 8.03674 32.9743 7.82958 32.9368 7.62699C32.9047 7.44742 32.8578 7.27081 32.7965 7.09899C32.7182 6.86186 32.616 6.63334 32.4912 6.41699H16.5V8.25033Z" fill="#EEEEEE"/>
<path d="M16.5 4.58301H3.66667C2.69421 4.58301 1.76158 4.96932 1.07394 5.65695C0.386308 6.34458 0 7.27721 0 8.24967L0 17.4163H16.5V4.58301Z" fill="#3C3B6E"/>
<path d="M1.83398 7.08249L2.40048 7.49408L2.18415 8.15866L2.74973 7.74799L3.31623 8.15866L3.0999 7.49408L3.6664 7.08249H2.96607L2.74973 6.41699L2.53432 7.08249H1.83398ZM3.66732 8.91583L4.23382 9.32741L4.01748 9.99199L4.58307 9.58133L5.14957 9.99199L4.93323 9.32741L5.49973 8.91583H4.7994L4.58307 8.25033L4.36765 8.91583H3.66732ZM7.33398 8.91583L7.90049 9.32741L7.68415 9.99199L8.24973 9.58133L8.81623 9.99199L8.5999 9.32741L9.1664 8.91583H8.46607L8.24973 8.25033L8.03432 8.91583H7.33398ZM11.0007 8.91583L11.5672 9.32741L11.3508 9.99199L11.9164 9.58133L12.4829 9.99199L12.2666 9.32741L12.8331 8.91583H12.1327L11.9164 8.25033L11.701 8.91583H11.0007ZM3.66732 12.5825L4.23382 12.9941L4.01748 13.6587L4.58307 13.248L5.14957 13.6587L4.93323 12.9941L5.49973 12.5825H4.7994L4.58307 11.917L4.36765 12.5825H3.66732ZM7.33398 12.5825L7.90049 12.9941L7.68415 13.6587L8.24973 13.248L8.81623 13.6587L8.5999 12.9941L9.1664 12.5825H8.46607L8.24973 11.917L8.03432 12.5825H7.33398ZM11.0007 12.5825L11.5672 12.9941L11.3508 13.6587L11.9164 13.248L12.4829 13.6587L12.2666 12.9941L12.8331 12.5825H12.1327L11.9164 11.917L11.701 12.5825H11.0007ZM5.50065 7.08249L6.06715 7.49408L5.85082 8.15866L6.4164 7.74799L6.9829 8.15866L6.76657 7.49408L7.33307 7.08249H6.63273L6.4164 6.41699L6.20098 7.08249H5.50065ZM9.16732 7.08249L9.73382 7.49408L9.51748 8.15866L10.0831 7.74799L10.6496 8.15866L10.4332 7.49408L10.9997 7.08249H10.2994L10.0831 6.41699L9.86765 7.08249H9.16732ZM12.834 7.08249L13.4005 7.49408L13.1842 8.15866L13.7497 7.74799L14.3162 8.15866L14.0999 7.49408L14.6664 7.08249H13.9661L13.7497 6.41699L13.5343 7.08249H12.834ZM1.83398 10.7492L2.40048 11.1607L2.18415 11.8253L2.74973 11.4147L3.31623 11.8253L3.0999 11.1607L3.6664 10.7492H2.96607L2.74973 10.0837L2.53432 10.7492H1.83398ZM5.85082 11.8253L6.4164 11.4147L6.9829 11.8253L6.76657 11.1607L7.33307 10.7492H6.63273L6.4164 10.0837L6.20098 10.7492H5.50065L6.06715 11.1607L5.85082 11.8253ZM9.16732 10.7492L9.73382 11.1607L9.51748 11.8253L10.0831 11.4147L10.6496 11.8253L10.4332 11.1607L10.9997 10.7492H10.2994L10.0831 10.0837L9.86765 10.7492H9.16732ZM12.834 10.7492L13.4005 11.1607L13.1842 11.8253L13.7497 11.4147L14.3162 11.8253L14.0999 11.1607L14.6664 10.7492H13.9661L13.7497 10.0837L13.5343 10.7492H12.834ZM1.83398 14.4158L2.40048 14.8274L2.18415 15.492L2.74973 15.0813L3.31623 15.492L3.0999 14.8274L3.6664 14.4158H2.96607L2.74973 13.7503L2.53432 14.4158H1.83398ZM5.85082 15.492L6.4164 15.0813L6.9829 15.492L6.76657 14.8274L7.33307 14.4158H6.63273L6.4164 13.7503L6.20098 14.4158H5.50065L6.06715 14.8274L5.85082 15.492ZM9.16732 14.4158L9.73382 14.8274L9.51748 15.492L10.0831 15.0813L10.6496 15.492L10.4332 14.8274L10.9997 14.4158H10.2994L10.0831 13.7503L9.86765 14.4158H9.16732ZM12.834 14.4158L13.4005 14.8274L13.1842 15.492L13.7497 15.0813L14.3162 15.492L14.0999 14.8274L14.6664 14.4158H13.9661L13.7497 13.7503L13.5343 14.4158H12.834Z" fill="white"/>
</svg>
