<svg width="24" height="24" viewBox="0 0 24 24" fill="none" xmlns="http://www.w3.org/2000/svg">
<g clip-path="url(#clip0_350_2041)">
<path d="M4.94002 4.95961C6.32949 3.56781 8.09955 2.61804 10.0275 2.22978C11.9554 1.84152 13.9551 2.03213 15.775 2.77761C16.4991 3.05534 17.1829 3.42865 17.808 3.88761L14.802 5.27761C12.003 4.10061 8.79702 4.89961 6.84002 6.85961C4.27602 9.42461 3.69402 13.8136 6.48002 16.7816L6.75802 17.0656L0.124023 22.9996C1.99902 21.0266 3.89502 18.5726 2.76002 15.8096C1.24002 12.1116 2.12502 7.77961 4.94002 4.95961ZM23.9 0.0996094C21.636 3.27361 20.716 5.48861 21.703 9.73961L21.696 9.73261C22.449 12.9336 21.644 16.4826 19.043 19.0876C15.764 22.3726 10.517 23.1036 6.19602 20.1476L9.21002 18.7496C11.968 19.8336 14.985 19.3566 17.153 17.1856C19.322 15.0156 19.808 11.8536 18.719 9.22261C18.512 8.72261 17.891 8.59761 17.456 8.91861L8.59002 15.4716L21.29 2.70161V2.71161L23.9 0.0996094Z" fill="black"/>
</g>
<defs>
<clipPath id="clip0_350_2041">
<rect width="24" height="24" fill="white"/>
</clipPath>
</defs>
</svg>
