<svg width="24" height="24" viewBox="0 0 24 24" fill="none" xmlns="http://www.w3.org/2000/svg">
<g clip-path="url(#clip0_350_2037)">
<path d="M4.38707 0.160156L11.1622 6.4024V0.174556H12.4811V6.43032L19.2865 0.160156V7.27728H22.0806V17.543H19.2951V23.8805L12.4811 17.8938V23.9492H11.1622V17.9925L4.39475 23.9531V17.543H1.60059V7.27728H4.38707V0.160156ZM10.1679 8.58H2.91955V16.2402H4.39315V13.8239L10.1679 8.58ZM5.71347 14.402V21.0462L11.1622 16.2471V9.45304L5.71347 14.402ZM12.519 16.1836V9.44664L17.9692 14.3958V17.543H17.9763V20.9782L12.519 16.1836ZM19.2951 16.2402H20.7617V8.58H13.5673L19.2951 13.7696V16.2402ZM17.9676 7.27728V3.15672L13.4953 7.27728H17.9676ZM10.1782 7.27728H5.70595V3.15672L10.1782 7.27728Z" fill="#3F7E8B"/>
</g>
<defs>
<clipPath id="clip0_350_2037">
<rect width="20.48" height="23.84" fill="white" transform="translate(1.60059 0.160156)"/>
</clipPath>
</defs>
</svg>
