<svg width="406" height="67" viewBox="0 0 406 67" fill="none" xmlns="http://www.w3.org/2000/svg">
<g opacity="0.16">
<path d="M10.7969 24V44" stroke="#4C6CF3" stroke-width="2" stroke-miterlimit="10"/>
<path d="M15.1191 20V48" stroke="#4C6CF3" stroke-width="2" stroke-miterlimit="10"/>
<path d="M20.5176 14V54" stroke="#4C6CF3" stroke-width="2" stroke-miterlimit="10"/>
<path d="M24.834 11V56" stroke="#4C6CF3" stroke-width="2" stroke-miterlimit="10"/>
<path d="M29.1562 2V65" stroke="#4C6CF3" stroke-width="2" stroke-miterlimit="10"/>
<path d="M34.5547 7V60" stroke="#4C6CF3" stroke-width="2" stroke-miterlimit="10"/>
<path d="M38.8711 14V54" stroke="#4C6CF3" stroke-width="2" stroke-miterlimit="10"/>
<path d="M43.1934 19V49" stroke="#4C6CF3" stroke-width="2" stroke-miterlimit="10"/>
<path d="M48.5918 2V65" stroke="#4C6CF3" stroke-width="2" stroke-miterlimit="10"/>
<path d="M52.9082 10V57" stroke="#4C6CF3" stroke-width="2" stroke-miterlimit="10"/>
<path d="M57.2305 16V52" stroke="#4C6CF3" stroke-width="2" stroke-miterlimit="10"/>
<path d="M62.6289 17V51" stroke="#4C6CF3" stroke-width="2" stroke-miterlimit="10"/>
<path d="M66.9453 21V47" stroke="#4C6CF3" stroke-width="2" stroke-miterlimit="10"/>
<path d="M71.2676 18V50" stroke="#4C6CF3" stroke-width="2" stroke-miterlimit="10"/>
<path d="M76.666 20V48" stroke="#4C6CF3" stroke-width="2" stroke-miterlimit="10"/>
<path d="M80.9824 20V48" stroke="#4C6CF3" stroke-width="2" stroke-miterlimit="10"/>
<path d="M85.3047 12V55" stroke="#4C6CF3" stroke-width="2" stroke-miterlimit="10"/>
<path d="M90.7031 15V53" stroke="#4C6CF3" stroke-width="2" stroke-miterlimit="10"/>
<path d="M95.0195 6V61" stroke="#4C6CF3" stroke-width="2" stroke-miterlimit="10"/>
<path d="M99.3418 1V66" stroke="#4C6CF3" stroke-width="2" stroke-miterlimit="10"/>
<path d="M104.74 7V60" stroke="#4C6CF3" stroke-width="2" stroke-miterlimit="10"/>
<path d="M109.057 2V65" stroke="#4C6CF3" stroke-width="2" stroke-miterlimit="10"/>
<path d="M114.455 16V52" stroke="#4C6CF3" stroke-width="2" stroke-miterlimit="10"/>
<path d="M118.777 22V46" stroke="#4C6CF3" stroke-width="2" stroke-miterlimit="10"/>
<path d="M123.094 18V50" stroke="#4C6CF3" stroke-width="2" stroke-miterlimit="10"/>
<path d="M128.492 10V57" stroke="#4C6CF3" stroke-width="2" stroke-miterlimit="10"/>
<path d="M132.814 0V67" stroke="#4C6CF3" stroke-width="2" stroke-miterlimit="10"/>
<path d="M137.131 0V67" stroke="#4C6CF3" stroke-width="2" stroke-miterlimit="10"/>
<path d="M142.529 7V60" stroke="#4C6CF3" stroke-width="2" stroke-miterlimit="10"/>
<path d="M146.852 14V54" stroke="#4C6CF3" stroke-width="2" stroke-miterlimit="10"/>
<path d="M151.168 23V45" stroke="#4C6CF3" stroke-width="2" stroke-miterlimit="10"/>
<path d="M156.566 24V44" stroke="#4C6CF3" stroke-width="2" stroke-miterlimit="10"/>
<path d="M160.889 20V48" stroke="#4C6CF3" stroke-width="2" stroke-miterlimit="10"/>
<path d="M165.205 14V54" stroke="#4C6CF3" stroke-width="2" stroke-miterlimit="10"/>
<path d="M170.604 11V56" stroke="#4C6CF3" stroke-width="2" stroke-miterlimit="10"/>
<path d="M174.926 2V65" stroke="#4C6CF3" stroke-width="2" stroke-miterlimit="10"/>
<path d="M179.242 7V60" stroke="#4C6CF3" stroke-width="2" stroke-miterlimit="10"/>
<path d="M184.646 14V54" stroke="#4C6CF3" stroke-width="2" stroke-miterlimit="10"/>
<path d="M188.963 19V49" stroke="#4C6CF3" stroke-width="2" stroke-miterlimit="10"/>
<path d="M193.279 2V65" stroke="#4C6CF3" stroke-width="2" stroke-miterlimit="10"/>
<path d="M198.684 10V57" stroke="#4C6CF3" stroke-width="2" stroke-miterlimit="10"/>
<path d="M203 16V52" stroke="#4C6CF3" stroke-width="2" stroke-miterlimit="10"/>
<path d="M207.316 17V51" stroke="#4C6CF3" stroke-width="2" stroke-miterlimit="10"/>
<path d="M212.721 21V47" stroke="#4C6CF3" stroke-width="2" stroke-miterlimit="10"/>
<path d="M217.037 18V50" stroke="#4C6CF3" stroke-width="2" stroke-miterlimit="10"/>
<path d="M221.354 20V48" stroke="#4C6CF3" stroke-width="2" stroke-miterlimit="10"/>
<path d="M226.758 20V48" stroke="#4C6CF3" stroke-width="2" stroke-miterlimit="10"/>
<path d="M231.074 12V55" stroke="#4C6CF3" stroke-width="2" stroke-miterlimit="10"/>
<path d="M235.396 15V53" stroke="#4C6CF3" stroke-width="2" stroke-miterlimit="10"/>
<path d="M240.795 6V61" stroke="#4C6CF3" stroke-width="2" stroke-miterlimit="10"/>
<path d="M245.111 1V66" stroke="#4C6CF3" stroke-width="2" stroke-miterlimit="10"/>
<path d="M249.434 7V60" stroke="#4C6CF3" stroke-width="2" stroke-miterlimit="10"/>
<path d="M254.832 2V65" stroke="#4C6CF3" stroke-width="2" stroke-miterlimit="10"/>
<path d="M259.148 16V52" stroke="#4C6CF3" stroke-width="2" stroke-miterlimit="10"/>
<path d="M263.471 22V46" stroke="#4C6CF3" stroke-width="2" stroke-miterlimit="10"/>
<path d="M268.869 18V50" stroke="#4C6CF3" stroke-width="2" stroke-miterlimit="10"/>
<path d="M273.186 10V57" stroke="#4C6CF3" stroke-width="2" stroke-miterlimit="10"/>
<path d="M277.508 0V67" stroke="#4C6CF3" stroke-width="2" stroke-miterlimit="10"/>
<path d="M282.906 0V67" stroke="#4C6CF3" stroke-width="2" stroke-miterlimit="10"/>
<path d="M287.223 7V60" stroke="#4C6CF3" stroke-width="2" stroke-miterlimit="10"/>
<path d="M291.545 14V54" stroke="#4C6CF3" stroke-width="2" stroke-miterlimit="10"/>
<path d="M296.943 23V45" stroke="#4C6CF3" stroke-width="2" stroke-miterlimit="10"/>
<path d="M301.26 24V44" stroke="#4C6CF3" stroke-width="2" stroke-miterlimit="10"/>
<path d="M306.658 20V48" stroke="#4C6CF3" stroke-width="2" stroke-miterlimit="10"/>
<path d="M310.98 14V54" stroke="#4C6CF3" stroke-width="2" stroke-miterlimit="10"/>
<path d="M315.297 11V56" stroke="#4C6CF3" stroke-width="2" stroke-miterlimit="10"/>
<path d="M320.695 2V65" stroke="#4C6CF3" stroke-width="2" stroke-miterlimit="10"/>
<path d="M325.018 7V60" stroke="#4C6CF3" stroke-width="2" stroke-miterlimit="10"/>
<path d="M329.334 14V54" stroke="#4C6CF3" stroke-width="2" stroke-miterlimit="10"/>
<path d="M334.732 19V49" stroke="#4C6CF3" stroke-width="2" stroke-miterlimit="10"/>
<path d="M339.055 2V65" stroke="#4C6CF3" stroke-width="2" stroke-miterlimit="10"/>
<path d="M343.371 10V57" stroke="#4C6CF3" stroke-width="2" stroke-miterlimit="10"/>
<path d="M348.77 16V52" stroke="#4C6CF3" stroke-width="2" stroke-miterlimit="10"/>
<path d="M353.092 17V51" stroke="#4C6CF3" stroke-width="2" stroke-miterlimit="10"/>
<path d="M357.408 21V47" stroke="#4C6CF3" stroke-width="2" stroke-miterlimit="10"/>
<path d="M362.807 18V50" stroke="#4C6CF3" stroke-width="2" stroke-miterlimit="10"/>
<path d="M367.129 20V48" stroke="#4C6CF3" stroke-width="2" stroke-miterlimit="10"/>
<path d="M371.445 20V48" stroke="#4C6CF3" stroke-width="2" stroke-miterlimit="10"/>
<path d="M376.844 12V55" stroke="#4C6CF3" stroke-width="2" stroke-miterlimit="10"/>
<path d="M381.166 5V62" stroke="#4C6CF3" stroke-width="2" stroke-miterlimit="10"/>
<path d="M385.482 6V61" stroke="#4C6CF3" stroke-width="2" stroke-miterlimit="10"/>
<path d="M390.881 12V55" stroke="#4C6CF3" stroke-width="2" stroke-miterlimit="10"/>
<path d="M395.203 25V43" stroke="#4C6CF3" stroke-width="2" stroke-miterlimit="10"/>
<path d="M0 34H406" stroke="#4C6CF3" stroke-width="2" stroke-miterlimit="10"/>
</g>
</svg>
