<svg width="50" height="50" viewBox="0 0 50 50" fill="none" xmlns="http://www.w3.org/2000/svg">
<circle cx="25" cy="25" r="25" fill="#F7F1E1"/>
<path d="M15 35V17C15 16.45 15.196 15.9793 15.588 15.588C15.98 15.1967 16.4507 15.0007 17 15H33C33.55 15 34.021 15.196 34.413 15.588C34.805 15.98 35.0007 16.4507 35 17V29C35 29.55 34.8043 30.021 34.413 30.413C34.0217 30.805 33.5507 31.0007 33 31H19L15 35ZM22.075 27.25L25 25.475L27.925 27.25L27.15 23.925L29.75 21.675L26.325 21.4L25 18.25L23.675 21.4L20.25 21.675L22.85 23.925L22.075 27.25Z" fill="#F3C149"/>
</svg>
