<svg width="50" height="50" viewBox="0 0 50 50" fill="none" xmlns="http://www.w3.org/2000/svg">
<circle cx="25" cy="25" r="25" fill="#DFF0E9"/>
<g clip-path="url(#clip0_384_1780)">
<path d="M13.5113 24.8563C13.5108 26.8728 14.0377 28.8417 15.0395 30.5771L13.4155 36.5066L19.4836 34.9156C21.162 35.8292 23.0425 36.308 24.9534 36.3081H24.9584C31.2668 36.3081 36.4019 31.1748 36.4046 24.8653C36.4059 21.8079 35.2163 18.9329 33.055 16.77C30.894 14.6072 28.0201 13.4155 24.9579 13.4141C18.6488 13.4141 13.514 18.5471 13.5114 24.8563" fill="url(#paint0_linear_384_1780)"/>
<path d="M13.1025 24.8527C13.1018 26.9417 13.6476 28.981 14.6852 30.7786L13.0029 36.9207L19.2886 35.2726C21.0205 36.2168 22.9705 36.7147 24.9547 36.7154H24.9598C31.4945 36.7154 36.8141 31.3975 36.8169 24.8621C36.818 21.6949 35.5856 18.7166 33.3471 16.4761C31.1083 14.2359 28.1316 13.0013 24.9598 13C18.424 13 13.1051 18.3172 13.1025 24.8527ZM16.8458 30.469L16.6111 30.0965C15.6245 28.5277 15.1038 26.7149 15.1045 24.8534C15.1066 19.4213 19.5274 15.0019 24.9635 15.0019C27.596 15.003 30.0701 16.0292 31.9309 17.8912C33.7917 19.7533 34.8156 22.2287 34.8149 24.8614C34.8125 30.2935 30.3916 34.7135 24.9598 34.7135H24.9559C23.1872 34.7126 21.4526 34.2376 19.9399 33.34L19.5799 33.1265L15.8498 34.1045L16.8458 30.469Z" fill="url(#paint1_linear_384_1780)"/>
<path d="M21.9965 19.8977C21.7745 19.4044 21.5409 19.3945 21.3298 19.3858C21.157 19.3784 20.9594 19.3789 20.762 19.3789C20.5645 19.3789 20.2434 19.4532 19.9721 19.7495C19.7005 20.0461 18.9351 20.7627 18.9351 22.2203C18.9351 23.6779 19.9967 25.0866 20.1447 25.2845C20.2929 25.482 22.1943 28.5689 25.2057 29.7564C27.7084 30.7433 28.2177 30.547 28.7608 30.4975C29.3041 30.4482 30.5138 29.7811 30.7605 29.0892C31.0075 28.3975 31.0075 27.8046 30.9335 27.6807C30.8594 27.5572 30.6618 27.4831 30.3656 27.335C30.0693 27.1869 28.6126 26.4701 28.3411 26.3712C28.0695 26.2724 27.872 26.2231 27.6744 26.5198C27.4768 26.8159 26.9095 27.4831 26.7365 27.6807C26.5638 27.8787 26.3909 27.9034 26.0947 27.7552C25.7982 27.6065 24.8441 27.2941 23.7121 26.2849C22.8313 25.4996 22.2367 24.5298 22.0639 24.2331C21.8911 23.937 22.0454 23.7764 22.1939 23.6288C22.3271 23.496 22.4903 23.2828 22.6386 23.1099C22.7863 22.9369 22.8356 22.8134 22.9344 22.6158C23.0333 22.4181 22.9838 22.2451 22.9098 22.0969C22.8356 21.9487 22.2599 20.4835 21.9965 19.8977Z" fill="white"/>
</g>
<defs>
<linearGradient id="paint0_linear_384_1780" x1="1162.87" y1="2322.67" x2="1162.87" y2="13.4141" gradientUnits="userSpaceOnUse">
<stop stop-color="#1FAF38"/>
<stop offset="1" stop-color="#60D669"/>
</linearGradient>
<linearGradient id="paint1_linear_384_1780" x1="1203.7" y1="2405.07" x2="1203.7" y2="13" gradientUnits="userSpaceOnUse">
<stop stop-color="#F9F9F9"/>
<stop offset="1" stop-color="white"/>
</linearGradient>
<clipPath id="clip0_384_1780">
<rect width="23.82" height="24" fill="white" transform="translate(13 13)"/>
</clipPath>
</defs>
</svg>
