<svg width="50" height="50" viewBox="0 0 50 50" fill="none" xmlns="http://www.w3.org/2000/svg">
<circle cx="25" cy="25" r="25" fill="#F4E1E8"/>
<path d="M17.7999 16.6001H32.1999C32.8599 16.6001 33.4239 16.8401 33.8919 17.3081C34.3599 17.7761 34.5999 18.3401 34.5999 19.0001V27.4001C34.5999 28.0601 34.3599 28.6241 33.8919 29.0921C33.4239 29.5601 32.8599 29.8001 32.1999 29.8001H30.9999L24.9999 35.8001V29.8001H17.7999C17.1399 29.8001 16.5759 29.5601 16.1079 29.0921C15.6399 28.6241 15.3999 28.0601 15.3999 27.4001V19.0001C15.3999 18.3401 15.6399 17.7761 16.1079 17.3081C16.5759 16.8401 17.1399 16.6001 17.7999 16.6001ZM30.9999 19.0001H17.7999V20.2001H30.9999V19.0001ZM32.1999 22.6001H17.7999V23.8001H32.1999V22.6001ZM28.5999 26.2001H17.7999V27.4001H28.5999V26.2001Z" fill="#DF4D80"/>
</svg>
