<svg width="50" height="50" viewBox="0 0 50 50" fill="none" xmlns="http://www.w3.org/2000/svg">
<circle cx="25" cy="25" r="25" fill="#EADEF5"/>
<path fill-rule="evenodd" clip-rule="evenodd" d="M17 16C16.8143 16 16.6322 16.0517 16.4743 16.1493C16.3163 16.247 16.1886 16.3867 16.1056 16.5528C16.0225 16.7189 15.9874 16.9048 16.004 17.0898C16.0207 17.2748 16.0886 17.4514 16.2 17.6L21.8 25.067C21.9298 25.2401 22 25.4506 22 25.667V33C22.0001 33.1704 22.0437 33.3379 22.1267 33.4867C22.2098 33.6355 22.3294 33.7606 22.4744 33.8502C22.6194 33.9398 22.7848 33.9908 22.955 33.9985C23.1252 34.0061 23.2946 33.9702 23.447 33.894L27.447 31.894C27.6131 31.811 27.7528 31.6834 27.8504 31.5255C27.9481 31.3676 27.9999 31.1857 28 31V25.667C28 25.4506 28.0702 25.2401 28.2 25.067L33.8 17.6C33.9114 17.4514 33.9793 17.2748 33.996 17.0898C34.0126 16.9048 33.9775 16.7189 33.8944 16.5528C33.8114 16.3867 33.6837 16.247 33.5257 16.1493C33.3678 16.0517 33.1857 16 33 16H17Z" fill="#9333EA"/>
</svg>
