<svg width="50" height="50" viewBox="0 0 50 50" fill="none" xmlns="http://www.w3.org/2000/svg">
<circle cx="25" cy="25" r="25" fill="#F7F1E1"/>
<path d="M20 27H21.65C21.7833 27 21.9127 26.975 22.038 26.925C22.1633 26.875 22.2757 26.8 22.375 26.7L27.05 22C27.2 21.85 27.3127 21.679 27.388 21.487C27.4633 21.295 27.5007 21.1077 27.5 20.925C27.4993 20.7423 27.462 20.5633 27.388 20.388C27.314 20.2127 27.2097 20.05 27.075 19.9L26.15 18.95C26 18.8 25.8333 18.6877 25.65 18.613C25.4667 18.5383 25.275 18.5007 25.075 18.5C24.8917 18.5 24.7083 18.5377 24.525 18.613C24.3417 18.6883 24.175 18.8007 24.025 18.95L19.3 23.625C19.2 23.725 19.125 23.8377 19.075 23.963C19.025 24.0883 19 24.2173 19 24.35V26C19 26.2833 19.096 26.521 19.288 26.713C19.48 26.905 19.7173 27.0007 20 27ZM25.05 21.9L24.1 20.975L25.075 20L26 20.95L25.05 21.9ZM24.2 27H30C30.2833 27 30.521 26.904 30.713 26.712C30.905 26.52 31.0007 26.2827 31 26C30.9993 25.7173 30.9033 25.48 30.712 25.288C30.5207 25.096 30.2833 25 30 25H26.2L24.2 27ZM19 31L16.7 33.3C16.3833 33.6167 16.0207 33.6877 15.612 33.513C15.2033 33.3383 14.9993 33.0257 15 32.575V17C15 16.45 15.196 15.9793 15.588 15.588C15.98 15.1967 16.4507 15.0007 17 15H33C33.55 15 34.021 15.196 34.413 15.588C34.805 15.98 35.0007 16.4507 35 17V29C35 29.55 34.8043 30.021 34.413 30.413C34.0217 30.805 33.5507 31.0007 33 31H19Z" fill="#F3C149"/>
</svg>
