<svg width="60" height="60" viewBox="0 0 60 60" fill="none" xmlns="http://www.w3.org/2000/svg">
<rect width="60" height="60" rx="16" fill="#EADEF5"/>
<path d="M22.0137 29.967C21.861 30.6947 21.4626 31.3477 20.8854 31.8163C20.3081 32.285 19.5873 32.5408 18.8438 32.5408C18.1002 32.5408 17.3794 32.285 16.8021 31.8163C16.2249 31.3477 15.8265 30.6947 15.6738 29.967L15.6047 29.6387C15.5037 29.1568 15.5053 28.659 15.6095 28.1777C15.7136 27.6964 15.918 27.2425 16.2093 26.8454L16.3208 26.6935C16.6115 26.2974 16.9913 25.9754 17.4296 25.7534C17.8678 25.5314 18.3522 25.4157 18.8435 25.4157C19.3348 25.4157 19.8191 25.5314 20.2574 25.7534C20.6956 25.9754 21.0755 26.2974 21.3661 26.6935L21.4777 26.8454C21.769 27.2424 21.9735 27.6963 22.0778 28.1776C22.182 28.6589 22.1837 29.1567 22.0828 29.6387L22.0137 29.967ZM13 38.9064C13 39.4541 13.4441 39.8982 13.9918 39.8982H18.6281C18.7427 38.9349 19.0515 38.0048 19.5359 37.1642C20.0203 36.3237 20.6703 35.5902 21.4463 35.0081C19.3696 34.4662 17.1754 34.5861 15.1702 35.3513C14.532 35.5949 13.9829 36.0265 13.5954 36.5891C13.2079 37.1516 13.0002 37.8185 13 38.5016V38.9064ZM46.0082 39.8982H41.3719C41.2573 38.9349 40.9485 38.0048 40.4641 37.1642C39.9797 36.3237 39.3297 35.5902 38.5537 35.0081C40.6304 34.4662 42.8246 34.5861 44.8298 35.3513C45.4681 35.5949 46.0173 36.0266 46.4048 36.5893C46.7923 37.1519 46.9999 37.8189 47 38.5021V38.9064C47 39.1694 46.8955 39.4217 46.7095 39.6077C46.5235 39.7937 46.2712 39.8982 46.0082 39.8982ZM37.9863 29.9676C38.139 30.6952 38.5374 31.3482 39.1146 31.8169C39.6919 32.2855 40.4127 32.5413 41.1562 32.5413C41.8998 32.5413 42.6206 32.2855 43.1979 31.8169C43.7751 31.3482 44.1735 30.6952 44.3262 29.9676L44.3953 29.6387C44.4963 29.1568 44.4947 28.659 44.3905 28.1777C44.2864 27.6964 44.082 27.2425 43.7907 26.8454L43.6792 26.6935C43.3885 26.2974 43.0087 25.9754 42.5704 25.7534C42.1322 25.5314 41.6478 25.4157 41.1565 25.4157C40.6652 25.4157 40.1809 25.5314 39.7426 25.7534C39.3044 25.9754 38.9245 26.2974 38.6339 26.6935L38.5223 26.8454C38.231 27.2424 38.0265 27.6963 37.9222 28.1776C37.818 28.6589 37.8163 29.1567 37.9172 29.6387L37.9863 29.9676ZM38.3937 43.0857H21.6063C21.1554 43.0857 20.723 42.9066 20.4042 42.5878C20.0854 42.269 19.9062 41.8366 19.9062 41.3857V40.7445C19.9062 38.3167 21.4081 36.1418 23.6781 35.2822C27.7515 33.7395 32.2485 33.7395 36.3219 35.2822C37.4307 35.7022 38.3854 36.4498 39.0592 37.4255C39.7329 38.4012 40.0938 39.5588 40.0938 40.7445V41.3857C40.0938 41.8366 39.9146 42.269 39.5958 42.5878C39.277 42.9066 38.8446 43.0857 38.3937 43.0857ZM27.4187 29.8459C28.1849 30.2437 29.0327 30.4589 29.8959 30.4749C30.7591 30.491 31.6143 30.3073 32.3947 29.9382C33.1752 29.5692 33.8599 29.0248 34.3952 28.3474C34.9305 27.6701 35.3021 26.8783 35.4809 26.0337L35.5898 25.5205C35.7662 24.688 35.7638 23.8275 35.583 22.996C35.4021 22.1644 35.0468 21.3808 34.5406 20.6967L34.3653 20.4598C33.8604 19.7771 33.2025 19.2224 32.4444 18.8402C31.6863 18.4579 30.849 18.2588 30 18.2588C29.151 18.2588 28.3137 18.4579 27.5556 18.8402C26.7975 19.2224 26.1396 19.7771 25.6347 20.4598L25.4594 20.6967C24.9532 21.3808 24.5979 22.1644 24.417 22.996C24.2362 23.8275 24.2338 24.688 24.4102 25.5205L24.5191 26.0337C24.6907 26.8439 25.0398 27.6059 25.5411 28.2651C26.0425 28.9243 26.6837 29.4642 27.4187 29.8459Z" fill="#9333EA"/>
</svg>
