<svg width="60" height="60" viewBox="0 0 60 60" fill="none" xmlns="http://www.w3.org/2000/svg">
<rect width="60" height="60" rx="16" fill="#F4E1E8"/>
<path d="M47.1875 27.25C47.1875 26.4212 46.8583 25.6263 46.2722 25.0403C45.6862 24.4542 44.8913 24.125 44.0625 24.125H34.1875L35.6875 16.9844C35.7188 16.8281 35.7344 16.6562 35.7344 16.4844C35.7344 15.8437 35.4688 15.25 35.0469 14.8281L33.3906 13.1875L23.1094 23.4688C22.5312 24.0469 22.1875 24.8281 22.1875 25.6875V41.3125C22.1875 42.1413 22.5167 42.9362 23.1028 43.5222C23.6888 44.1083 24.4837 44.4375 25.3125 44.4375H39.375C40.6719 44.4375 41.7812 43.6563 42.25 42.5313L46.9688 31.5156C47.1094 31.1562 47.1875 30.7812 47.1875 30.375V27.25ZM12.8125 44.4375H19.0625V25.6875H12.8125V44.4375Z" fill="#DF4D80"/>
</svg>
