<svg width="22" height="26" viewBox="0 0 22 26" fill="none" xmlns="http://www.w3.org/2000/svg">
<path d="M9.29064 16.6531L15.4698 10.474L14.2427 9.24689L9.29064 14.199L6.79268 11.701L5.56561 12.9281L9.29064 16.6531ZM10.5177 21.3861C9.30525 21.3861 8.16582 21.156 7.09944 20.6959C6.03306 20.2357 5.10546 19.6112 4.31663 18.8224C3.5278 18.0336 2.90331 17.106 2.44316 16.0396C1.98301 14.9732 1.75293 13.8338 1.75293 12.6213C1.75293 11.4089 1.98301 10.2695 2.44316 9.20307C2.90331 8.13669 3.5278 7.20908 4.31663 6.42025C5.10546 5.63142 6.03306 5.00693 7.09944 4.54678C8.16582 4.08663 9.30525 3.85656 10.5177 3.85656C11.7302 3.85656 12.8696 4.08663 13.936 4.54678C15.0023 5.00693 15.93 5.63142 16.7188 6.42025C17.5076 7.20908 18.1321 8.13669 18.5923 9.20307C19.0524 10.2695 19.2825 11.4089 19.2825 12.6213C19.2825 13.8338 19.0524 14.9732 18.5923 16.0396C18.1321 17.106 17.5076 18.0336 16.7188 18.8224C15.93 19.6112 15.0023 20.2357 13.936 20.6959C12.8696 21.156 11.7302 21.3861 10.5177 21.3861ZM10.5177 19.6332C12.4752 19.6332 14.1332 18.9539 15.4917 17.5953C16.8503 16.2368 17.5295 14.5788 17.5295 12.6213C17.5295 10.6639 16.8503 9.00586 15.4917 7.64732C14.1332 6.28878 12.4752 5.60951 10.5177 5.60951C8.56024 5.60951 6.90224 6.28878 5.5437 7.64732C4.18516 9.00586 3.50589 10.6639 3.50589 12.6213C3.50589 14.5788 4.18516 16.2368 5.5437 17.5953C6.90224 18.9539 8.56024 19.6332 10.5177 19.6332Z" fill="#3871E0"/>
</svg>
