<svg width="29" height="29" viewBox="0 0 29 29" fill="none" xmlns="http://www.w3.org/2000/svg">
<path fill-rule="evenodd" clip-rule="evenodd" d="M18.6297 6.81849C18.4631 6.55222 18.2175 6.34453 17.9273 6.22433C17.6371 6.10413 17.3167 6.0774 17.0105 6.14787L14.838 6.64691C14.6153 6.69809 14.3839 6.69809 14.1613 6.64691L11.9887 6.14787C11.6826 6.0774 11.3621 6.10413 11.0719 6.22433C10.7817 6.34453 10.5362 6.55222 10.3695 6.81849L9.18538 8.70833C9.06454 8.90166 8.90142 9.06479 8.70808 9.18683L6.81825 10.371C6.55244 10.5375 6.34505 10.7826 6.22488 11.0723C6.10471 11.362 6.07771 11.682 6.14763 11.9877L6.64667 14.1627C6.69766 14.385 6.69766 14.6159 6.64667 14.8382L6.14763 17.012C6.07743 17.3179 6.1043 17.6381 6.22449 17.9281C6.34467 18.2181 6.55221 18.4634 6.81825 18.63L8.70808 19.8141C8.90142 19.935 9.06454 20.0981 9.18658 20.2914L10.3708 22.1812C10.7115 22.7262 11.3616 22.9957 11.9887 22.8519L14.1613 22.3528C14.3839 22.3017 14.6153 22.3017 14.838 22.3528L17.0118 22.8519C17.3177 22.9221 17.6379 22.8952 17.9279 22.775C18.2178 22.6548 18.4631 22.4473 18.6297 22.1812L19.8139 20.2914C19.9347 20.0981 20.0978 19.935 20.2912 19.8141L22.1822 18.63C22.4483 18.4631 22.6557 18.2176 22.7757 17.9274C22.8957 17.6372 22.9222 17.3168 22.8516 17.0108L22.3538 14.8382C22.3026 14.6155 22.3026 14.3842 22.3538 14.1615L22.8528 11.9877C22.9231 11.6819 22.8965 11.3618 22.7765 11.0719C22.6565 10.7819 22.4492 10.5365 22.1834 10.3698L20.2924 9.18562C20.0993 9.06456 19.9361 8.90139 19.8151 8.70833L18.6297 6.81849ZM18.0219 11.8053C18.0967 11.6679 18.1152 11.5068 18.0736 11.356C18.032 11.2052 17.9335 11.0764 17.7989 10.9967C17.6643 10.917 17.504 10.8927 17.3518 10.9288C17.1995 10.9649 17.0673 11.0586 16.9828 11.1902L13.823 16.5383L11.915 14.7113C11.8584 14.6532 11.7907 14.6071 11.7159 14.5757C11.641 14.5443 11.5607 14.5283 11.4795 14.5287C11.3984 14.529 11.3182 14.5457 11.2437 14.5778C11.1691 14.6098 11.1018 14.6565 11.0457 14.7151C10.9896 14.7737 10.9459 14.843 10.9172 14.9189C10.8884 14.9948 10.8753 15.0757 10.8785 15.1567C10.8817 15.2378 10.9012 15.3174 10.9358 15.3907C10.9704 15.4641 11.0195 15.5297 11.08 15.5837L13.5378 17.9388C13.6036 18.0017 13.6827 18.0489 13.7693 18.0769C13.8559 18.105 13.9477 18.1131 14.0379 18.1006C14.128 18.0882 14.2142 18.0555 14.29 18.0051C14.3657 17.9547 14.4292 17.8878 14.4755 17.8095L18.0219 11.8053Z" fill="#64B462"/>
</svg>
