<svg width="62" height="62" viewBox="0 0 62 62" fill="none" xmlns="http://www.w3.org/2000/svg">
<path d="M31.3083 0.00286887C13.9441 -0.231662 -0.231662 13.9441 0.00286887 31.3083C0.234431 47.9615 13.7942 61.5213 30.4474 61.7529C47.8146 61.9904 61.9874 47.8146 61.7499 30.4504C61.5213 13.7942 47.9615 0.234431 31.3083 0.00286887ZM28.8161 28.5726L36.468 19.8148C36.8826 19.3404 37.4686 19.0502 38.0972 19.0078C38.7257 18.9655 39.3454 19.1747 39.8197 19.5892C40.2941 20.0037 40.5844 20.5898 40.6267 21.2183C40.669 21.8469 40.4599 22.4665 40.0454 22.9409L32.3934 31.6987C32.1882 31.9336 31.9386 32.1258 31.6591 32.2642C31.3796 32.4027 31.0755 32.4848 30.7643 32.5057C30.4531 32.5267 30.1407 32.4861 29.8452 32.3864C29.5496 32.2866 29.2766 32.1296 29.0417 31.9244C28.8068 31.7191 28.6146 31.4696 28.4762 31.19C28.3377 30.9105 28.2557 30.6065 28.2347 30.2952C28.2138 29.984 28.2543 29.6717 28.3541 29.3761C28.4538 29.0805 28.6108 28.8075 28.8161 28.5726ZM23.0478 42.0582C22.6024 42.5032 21.9986 42.7533 21.369 42.7533C20.7393 42.7533 20.1355 42.5032 19.6901 42.0582L12.5726 34.9332C12.3521 34.7125 12.1772 34.4506 12.058 34.1624C11.9388 33.8741 11.8775 33.5652 11.8776 33.2533C11.8777 32.9414 11.9393 32.6325 12.0588 32.3444C12.1783 32.0563 12.3534 31.7945 12.574 31.574C12.7947 31.3536 13.0566 31.1787 13.3449 31.0595C13.6331 30.9402 13.942 30.8789 14.2539 30.8791C14.5658 30.8792 14.8747 30.9408 15.1628 31.0603C15.4509 31.1798 15.7127 31.3549 15.9332 31.5755L23.0582 38.7005C23.5019 39.1473 23.75 39.7519 23.7481 40.3815C23.7461 41.0111 23.4942 41.6142 23.0478 42.0582ZM49.2915 22.9409L32.6844 41.9409C32.4704 42.1861 32.2083 42.3847 31.9144 42.5243C31.6205 42.664 31.3011 42.7418 30.9758 42.7529H30.8957C30.5836 42.7529 30.2746 42.6915 29.9862 42.572C29.6979 42.4525 29.436 42.2774 29.2154 42.0567L22.0993 34.9317C21.654 34.486 21.404 33.8818 21.4043 33.2518C21.4046 32.6219 21.6551 32.0178 22.1008 31.5726C22.5464 31.1273 23.1507 30.8773 23.7806 30.8776C24.4106 30.8779 25.0146 31.1284 25.4599 31.574L29.8833 36.0019C29.9983 36.117 30.1357 36.2071 30.287 36.2669C30.4383 36.3266 30.6002 36.3546 30.7628 36.3492C30.9253 36.3438 31.085 36.305 31.232 36.2353C31.379 36.1656 31.51 36.0665 31.6171 35.944L45.7187 19.8148C46.1332 19.3404 46.7192 19.0502 47.3478 19.0078C47.9763 18.9655 48.596 19.1747 49.0704 19.5892C49.5448 20.0037 49.835 20.5898 49.8773 21.2183C49.9197 21.8469 49.7105 22.4665 49.296 22.9409H49.2915Z" fill="url(#paint0_linear_278_790)"/>
<defs>
<linearGradient id="paint0_linear_278_790" x1="-0.12207" y1="27.877" x2="61.8779" y2="22.877" gradientUnits="userSpaceOnUse">
<stop stop-color="#3A19B3"/>
<stop offset="1" stop-color="#AC14A2"/>
</linearGradient>
</defs>
</svg>
