<svg width="60" height="60" viewBox="0 0 60 60" fill="none" xmlns="http://www.w3.org/2000/svg">
<rect width="60" height="60" rx="16" fill="#DFF0E9"/>
<path fill-rule="evenodd" clip-rule="evenodd" d="M25 20.5001C23.6739 20.5001 22.4021 21.0269 21.4645 21.9646C20.5268 22.9023 20 24.1741 20 25.5001C20 26.8262 20.5268 28.098 21.4645 29.0357C22.4021 29.9734 23.6739 30.5001 25 30.5001C26.3261 30.5001 27.5979 29.9734 28.5355 29.0357C29.4732 28.098 30 26.8262 30 25.5001C30 24.1741 29.4732 22.9023 28.5355 21.9646C27.5979 21.0269 26.3261 20.5001 25 20.5001ZM22.5 31.7501C21.1739 31.7501 19.9021 32.2769 18.9645 33.2146C18.0268 34.1523 17.5 35.4241 17.5 36.7501V38.0001C17.5 38.6632 17.7634 39.2991 18.2322 39.7679C18.7011 40.2367 19.337 40.5001 20 40.5001H30C30.663 40.5001 31.2989 40.2367 31.7678 39.7679C32.2366 39.2991 32.5 38.6632 32.5 38.0001V36.7501C32.5 35.4241 31.9732 34.1523 31.0355 33.2146C30.0979 32.2769 28.8261 31.7501 27.5 31.7501H22.5ZM31.5625 29.1314C32.16 28.0564 32.5 26.8189 32.5 25.5001C32.5003 24.2294 32.1777 22.9795 31.5625 21.8676C32.2723 21.1961 33.1633 20.7472 34.1254 20.5764C35.0875 20.4057 36.0785 20.5206 36.9761 20.907C37.8736 21.2934 38.6382 21.9343 39.1754 22.7505C39.7127 23.5666 39.999 24.5224 39.999 25.4995C39.999 26.4767 39.7127 27.4324 39.1754 28.2486C38.6382 29.0648 37.8736 29.7057 36.9761 30.092C36.0785 30.4784 35.0875 30.5933 34.1254 30.4226C33.1633 30.2519 32.2723 29.803 31.5625 29.1314ZM34.3325 40.5001C34.7575 39.7651 35.0012 38.9114 35.0012 38.0001V36.7501C35.0036 34.9049 34.3232 33.1239 33.0912 31.7501H37.5C38.8261 31.7501 40.0979 32.2769 41.0355 33.2146C41.9732 34.1523 42.5 35.4241 42.5 36.7501V38.0001C42.5 38.6632 42.2366 39.2991 41.7678 39.7679C41.2989 40.2367 40.663 40.5001 40 40.5001H34.3325Z" fill="#3DBD8E"/>
</svg>
