<svg width="60" height="60" viewBox="0 0 60 60" fill="none" xmlns="http://www.w3.org/2000/svg">
<rect width="60" height="60" rx="16" fill="#F7F1E1"/>
<path d="M24 18.5C24.8297 18.5 25.5 19.1703 25.5 20V21.5H31.5C32.3297 21.5 33 22.1703 33 23C33 23.8297 32.3297 24.5 31.5 24.5H31.05L30.6562 25.5828C29.8875 27.7016 28.7297 29.6375 27.2719 31.3016C27.9375 31.7141 28.6313 32.0797 29.3531 32.4031L31.7156 33.4531L34.6312 26.8906C34.8703 26.3469 35.4094 26 36 26C36.5906 26 37.1297 26.3469 37.3688 26.8906L43.3688 40.3906C43.7063 41.15 43.3641 42.0359 42.6094 42.3688C41.8547 42.7016 40.9641 42.3641 40.6312 41.6094L39.6937 39.5H32.3109L31.3734 41.6094C31.0359 42.3687 30.15 42.7063 29.3953 42.3688C28.6406 42.0312 28.2984 41.1453 28.6359 40.3906L30.5016 36.1953L28.1391 35.1453C27.0609 34.6672 26.0297 34.0953 25.0547 33.4391C24.0563 34.2453 22.9641 34.9484 21.7969 35.5344L20.1703 36.3406C19.4297 36.7109 18.5297 36.4109 18.1594 35.6703C17.7891 34.9297 18.0891 34.0297 18.8297 33.6594L20.4469 32.8484C21.2109 32.4641 21.9375 32.0187 22.6219 31.5219C21.975 30.9266 21.3656 30.2844 20.7984 29.6047L20.325 29.0328C19.7953 28.3953 19.8797 27.4484 20.5172 26.9188C21.1547 26.3891 22.1016 26.4734 22.6313 27.1109L23.1094 27.6828C23.6484 28.3344 24.2391 28.9391 24.8625 29.4969C26.1516 28.0719 27.1687 26.3984 27.8391 24.5562L27.8625 24.5H18.0047C17.1703 24.5 16.5 23.8297 16.5 23C16.5 22.1703 17.1703 21.5 18 21.5H22.5V20C22.5 19.1703 23.1703 18.5 24 18.5ZM36 31.1937L33.6422 36.5H38.3578L36 31.1937Z" fill="#F3C149"/>
</svg>
