<svg width="60" height="60" viewBox="0 0 60 60" fill="none" xmlns="http://www.w3.org/2000/svg">
<rect width="60" height="60" rx="16" fill="#EADEF5"/>
<path d="M33.9375 29.9999C33.9375 29.9319 33.9652 29.8668 34.0144 29.8187C34.0636 29.7706 34.1304 29.7437 34.2 29.7437C34.2696 29.7437 34.3364 29.7706 34.3856 29.8187C34.4348 29.8668 34.4625 29.9319 34.4625 29.9999C34.4625 30.0679 34.4348 30.133 34.3856 30.1811C34.3364 30.2292 34.2696 30.2562 34.2 30.2562C34.1304 30.2562 34.0636 30.2292 34.0144 30.1811C33.9652 30.133 33.9375 30.0679 33.9375 29.9999Z" fill="#9333EA"/>
<path fill-rule="evenodd" clip-rule="evenodd" d="M38.6543 19.5013C37.2404 18.9218 35.7232 18.6207 34.1898 18.6153C32.6563 18.6099 31.1369 18.9003 29.7188 19.4698C28.3007 20.0393 27.0118 20.8767 25.9262 21.9339C24.8406 22.9911 23.9797 24.2473 23.3929 25.6303C22.8061 27.0133 22.505 28.4958 22.5068 29.9927C22.5087 31.4896 22.8135 32.9714 23.4038 34.353C23.994 35.7346 24.8581 36.9887 25.9463 38.0433C27.0345 39.098 28.3255 39.9323 29.745 40.4985C32.594 41.6347 35.788 41.6234 38.6285 40.467C41.4689 39.3106 43.7247 37.1031 44.9024 34.3275C46.0801 31.5519 46.084 28.4339 44.9131 25.6555C43.7422 22.8771 41.4919 20.6644 38.6543 19.5013ZM38.7519 26.3022C38.9635 26.0323 39.0567 25.6915 39.0109 25.3545C38.965 25.0176 38.784 24.7123 38.5075 24.5057C38.2311 24.299 37.8818 24.2081 37.5367 24.2529C37.1916 24.2976 36.8788 24.4743 36.6671 24.7442L34.7215 27.2273C34.2571 27.1443 33.7789 27.1737 33.3289 27.3129C32.8788 27.4522 32.4706 27.6971 32.14 28.0261C31.8094 28.3551 31.5665 28.7582 31.4326 29.2001C31.2986 29.6421 31.2777 30.1093 31.3717 30.561C31.4656 31.0126 31.6716 31.4349 31.9716 31.7908C32.2715 32.1467 32.6563 32.4254 33.0922 32.6024C33.528 32.7794 34.0018 32.8495 34.4718 32.8063C34.9418 32.7631 35.3939 32.6081 35.7883 32.3548L40.8524 35.1674C41.0023 35.2522 41.1679 35.3071 41.3397 35.3291C41.5114 35.3511 41.6859 35.3396 41.8531 35.2954C42.0203 35.2512 42.1769 35.1752 42.3138 35.0717C42.4508 34.9681 42.5654 34.8391 42.651 34.6922C42.7367 34.5452 42.7917 34.3831 42.8128 34.2153C42.834 34.0475 42.8209 33.8772 42.7744 33.7143C42.7278 33.5515 42.6487 33.3992 42.5416 33.2663C42.4345 33.1334 42.3014 33.0226 42.1502 32.9401L37.0845 30.1265C37.0866 30.0848 37.0877 30.0428 37.0877 30.0004C37.0877 29.5648 36.9863 29.1527 36.8057 28.7848L38.7519 26.3022Z" fill="#9333EA"/>
<path d="M14.25 38.1999C14.25 37.7921 14.4159 37.4011 14.7113 37.1127C15.0067 36.8244 15.4073 36.6624 15.825 36.6624H21.075C21.4927 36.6624 21.8933 36.8244 22.1887 37.1127C22.4841 37.4011 22.65 37.7921 22.65 38.1999C22.65 38.6077 22.4841 38.9987 22.1887 39.2871C21.8933 39.5754 21.4927 39.7374 21.075 39.7374H15.825C15.4073 39.7374 15.0067 39.5754 14.7113 39.2871C14.4159 38.9987 14.25 38.6077 14.25 38.1999ZM18.45 31.5374C18.8677 31.5374 19.2683 31.3754 19.5637 31.0871C19.8591 30.7987 20.025 30.4077 20.025 29.9999C20.025 29.5921 19.8591 29.2011 19.5637 28.9127C19.2683 28.6244 18.8677 28.4624 18.45 28.4624H13.2C12.7823 28.4624 12.3817 28.6244 12.0863 28.9127C11.7909 29.2011 11.625 29.5921 11.625 29.9999C11.625 30.4077 11.7909 30.7987 12.0863 31.0871C12.3817 31.3754 12.7823 31.5374 13.2 31.5374H18.45ZM12.675 34.0999C12.675 33.6921 12.8409 33.3011 13.1363 33.0127C13.4317 32.7244 13.8323 32.5624 14.25 32.5624H19.5C19.9177 32.5624 20.3183 32.7244 20.6137 33.0127C20.9091 33.3011 21.075 33.6921 21.075 34.0999C21.075 34.5077 20.9091 34.8987 20.6137 35.1871C20.3183 35.4754 19.9177 35.6374 19.5 35.6374H14.25C13.8323 35.6374 13.4317 35.4754 13.1363 35.1871C12.8409 34.8987 12.675 34.5077 12.675 34.0999Z" fill="#9333EA"/>
</svg>
