<svg width="60" height="60" viewBox="0 0 60 60" fill="none" xmlns="http://www.w3.org/2000/svg">
<rect width="60" height="60" rx="16" fill="#F4E1E8"/>
<path d="M38.75 26.7498C38.7506 25.2434 38.3622 23.7624 37.6225 22.4502C36.8829 21.1379 35.817 20.0388 34.528 19.2593C33.239 18.4797 31.7706 18.0462 30.2649 18.0006C28.7592 17.955 27.2673 18.2989 25.9335 18.999C24.5996 19.699 23.4692 20.7316 22.6514 21.9967C21.8337 23.2618 21.3565 24.7166 21.2658 26.2203C21.1752 27.7239 21.4743 29.2255 22.1342 30.5796C22.7941 31.9338 23.7924 33.0946 25.0325 33.9498L21.25 40.4998L24.07 40.6161L25.58 42.9998L29.9125 35.4948L30 35.4998C30.0438 35.5023 30.0575 35.4961 30.0875 35.4948L34.42 42.9998L35.96 40.6673L38.75 40.4998L34.9675 33.9498C36.1345 33.1463 37.0886 32.0711 37.7476 30.8167C38.4065 29.5624 38.7505 28.1667 38.75 26.7498ZM23.75 26.7498C23.75 25.5137 24.1166 24.3053 24.8033 23.2775C25.4901 22.2497 26.4662 21.4486 27.6082 20.9756C28.7503 20.5025 30.0069 20.3787 31.2193 20.6199C32.4317 20.8611 33.5453 21.4563 34.4194 22.3304C35.2935 23.2045 35.8888 24.3181 36.1299 25.5305C36.3711 26.7429 36.2473 27.9995 35.7742 29.1416C35.3012 30.2836 34.5001 31.2597 33.4723 31.9465C32.4445 32.6333 31.2361 32.9998 30 32.9998C28.3424 32.9998 26.7527 32.3413 25.5806 31.1692C24.4085 29.9971 23.75 28.4074 23.75 26.7498Z" fill="#DF4D80"/>
<path d="M30 30.5C32.0711 30.5 33.75 28.8211 33.75 26.75C33.75 24.6789 32.0711 23 30 23C27.9289 23 26.25 24.6789 26.25 26.75C26.25 28.8211 27.9289 30.5 30 30.5Z" fill="#DF4D80"/>
</svg>
