<svg width="40" height="42" viewBox="0 0 40 42" fill="none" xmlns="http://www.w3.org/2000/svg">
<rect width="40" height="41.2698" rx="14.217" fill="#9333EA" fill-opacity="0.13"/>
<path d="M13.7728 13.3706H26.226C26.7968 13.3706 27.2845 13.5782 27.6892 13.9829C28.094 14.3876 28.3015 14.8754 28.3015 15.4461V22.7105C28.3015 23.2813 28.094 23.769 27.6892 24.1738C27.2845 24.5785 26.7968 24.786 26.226 24.786H25.1882L19.9994 29.9749V24.786H13.7728C13.202 24.786 12.7143 24.5785 12.3095 24.1738C11.9048 23.769 11.6973 23.2813 11.6973 22.7105V15.4461C11.6973 14.8754 11.9048 14.3876 12.3095 13.9829C12.7143 13.5782 13.202 13.3706 13.7728 13.3706ZM25.1882 15.4461H13.7728V16.4839H25.1882V15.4461ZM26.226 18.5594H13.7728V19.5972H26.226V18.5594ZM23.1127 21.6727H13.7728V22.7105H23.1127V21.6727Z" fill="#9333EA"/>
</svg>
