<svg width="40" height="42" viewBox="0 0 40 42" fill="none" xmlns="http://www.w3.org/2000/svg">
<rect width="40" height="41.2698" rx="14.217" fill="#F3C94C" fill-opacity="0.13"/>
<path d="M19.9996 23.186L22.3995 25.0021C22.5724 25.1174 22.7454 25.1212 22.9183 25.0134C23.0913 24.9056 23.1417 24.7505 23.0697 24.5481L22.1616 21.5429L24.5182 19.8565C24.6912 19.7268 24.7416 19.5645 24.6696 19.3697C24.5975 19.1748 24.4606 19.0776 24.2588 19.0782H21.3833L20.4104 15.9217C20.3383 15.7199 20.2014 15.619 19.9996 15.619C19.7978 15.619 19.6609 15.7199 19.5888 15.9217L18.6159 19.0782H15.7405C15.5387 19.0782 15.4017 19.1757 15.3297 19.3705C15.2576 19.5654 15.308 19.7274 15.481 19.8565L17.8376 21.5429L16.9296 24.5481C16.8575 24.7499 16.9079 24.905 17.0809 25.0134C17.2539 25.1218 17.4268 25.118 17.5998 25.0021L19.9996 23.186ZM19.9996 29.2829C18.8033 29.2829 17.6791 29.0558 16.6269 28.6015C15.5747 28.1472 14.6594 27.5311 13.8811 26.7534C13.1028 25.9756 12.4868 25.0604 12.033 24.0076C11.5793 22.9549 11.3521 21.8306 11.3516 20.6349C11.351 19.4391 11.5781 18.3149 12.033 17.2621C12.4879 16.2094 13.1039 15.2941 13.8811 14.5164C14.6583 13.7386 15.5735 13.1226 16.6269 12.6683C17.6802 12.214 18.8045 11.9868 19.9996 11.9868C21.1948 11.9868 22.319 12.214 23.3724 12.6683C24.4257 13.1226 25.341 13.7386 26.1181 14.5164C26.8953 15.2941 27.5116 16.2094 27.9671 17.2621C28.4225 18.3149 28.6494 19.4391 28.6477 20.6349C28.6459 21.8306 28.4188 22.9549 27.9662 24.0076C27.5136 25.0604 26.8976 25.9756 26.1181 26.7534C25.3386 27.5311 24.4234 28.1474 23.3724 28.6023C22.3213 29.0572 21.1971 29.2841 19.9996 29.2829Z" fill="#F3C94C"/>
</svg>
