<svg width="40" height="42" viewBox="0 0 40 42" fill="none" xmlns="http://www.w3.org/2000/svg">
<rect width="40" height="41.2698" rx="14.217" fill="#DF4D80" fill-opacity="0.13"/>
<path d="M27.2567 13.4191V14.1293H24.338V13.4185H14.8515V14.1293H11.9328V13.4185H11.2842V27.2013H11.9328V26.4917H14.8515V27.2019H24.3373V26.4917H27.2561V27.2019H28.0668V13.4191H27.2567ZM14.8515 25.6421H11.9328V23.6145H14.8515V25.6421ZM14.8515 22.7622H11.9328V20.736H14.8515V22.7622ZM14.8515 19.885H11.9328V17.8588H14.8515V19.885ZM14.8515 17.0065H11.9328V14.979H14.8515V17.0065ZM16.9173 23.6119V16.5836L23.0025 20.0978L16.9173 23.6119ZM27.2561 25.6421H24.3373V23.6145H27.2561V25.6421ZM27.2561 22.7622H24.3373V20.736H27.2561V22.7622ZM27.2561 19.885H24.3373V17.8588H27.2561V19.885ZM27.2561 17.0065H24.3373V14.979H27.2561V17.0065Z" fill="#DF4D80"/>
</svg>
