<svg width="40" height="42" viewBox="0 0 40 42" fill="none" xmlns="http://www.w3.org/2000/svg">
<rect width="40" height="41.2698" rx="14.217" fill="#3DBD8E" fill-opacity="0.13"/>
<path d="M14.8108 22.0471H17.4701L21.7725 17.7231C21.9022 17.5934 21.9996 17.4455 22.0648 17.2794C22.1299 17.1134 22.1622 16.9514 22.1616 16.7934C22.1611 16.6354 22.1288 16.4806 22.0648 16.329C22.0008 16.1774 21.9106 16.0367 21.7941 15.907L20.9941 15.0854C20.8644 14.9557 20.7203 14.8585 20.5617 14.794C20.4032 14.7294 20.2374 14.6968 20.0645 14.6963C19.9059 14.6963 19.7474 14.7288 19.5888 14.794C19.4303 14.8591 19.2862 14.9563 19.1564 15.0854L14.8108 19.3878V22.0471ZM20.0429 17.6366L19.2213 16.8366L20.0645 15.9935L20.8644 16.815L20.0429 17.6366ZM19.3078 22.0471H25.1885V20.3175H21.0374L19.3078 22.0471ZM11.3516 28.9655V13.399C11.3516 12.9234 11.5211 12.5164 11.8601 12.1779C12.1991 11.8395 12.6061 11.67 13.0812 11.6694H26.9181C27.3937 11.6694 27.801 11.8389 28.14 12.1779C28.479 12.5169 28.6483 12.924 28.6477 13.399V23.7767C28.6477 24.2524 28.4785 24.6597 28.14 24.9987C27.8016 25.3377 27.3943 25.5069 26.9181 25.5063H14.8108L11.3516 28.9655Z" fill="#3DBD8E"/>
</svg>
