<svg width="20" height="20" viewBox="0 0 20 20" fill="none" xmlns="http://www.w3.org/2000/svg">
<path d="M5.54814 3.64455C5.47496 3.60116 5.3916 3.57791 5.30653 3.57717C5.22145 3.57642 5.1377 3.59821 5.06377 3.64031C4.98985 3.68242 4.92838 3.74334 4.88562 3.81689C4.84286 3.89044 4.82033 3.97399 4.82031 4.05907V15.2207C4.82033 15.3057 4.84286 15.3893 4.88562 15.4628C4.92838 15.5364 4.98985 15.5973 5.06377 15.6394C5.1377 15.6815 5.22145 15.7033 5.30653 15.7026C5.3916 15.7018 5.47496 15.6786 5.54814 15.6352L14.9657 10.0544C15.0376 10.0117 15.0972 9.95105 15.1386 9.87837C15.18 9.80569 15.2017 9.7235 15.2017 9.63986C15.2017 9.55623 15.18 9.47403 15.1386 9.40135C15.0972 9.32868 15.0376 9.26802 14.9657 9.22534L5.54814 3.64455Z" fill="white" stroke="white" stroke-width="1.20501" stroke-linecap="round" stroke-linejoin="round"/>
</svg>
