<svg width="13" height="13" viewBox="0 0 13 13" fill="none" xmlns="http://www.w3.org/2000/svg">
<path d="M5.81956 1.85225C5.87231 1.74521 5.95397 1.65507 6.0553 1.59204C6.15663 1.52901 6.27357 1.49561 6.39291 1.49561C6.51224 1.49561 6.62919 1.52901 6.73051 1.59204C6.83184 1.65507 6.9135 1.74521 6.96625 1.85225L8.19986 4.35207L10.9592 4.75284C11.0773 4.76998 11.1882 4.81982 11.2794 4.89672C11.3706 4.97362 11.4384 5.0745 11.4753 5.18796C11.5121 5.30143 11.5165 5.42294 11.4878 5.53874C11.4592 5.65455 11.3988 5.76004 11.3133 5.84327L9.31651 7.78957L9.78822 10.5374C9.80836 10.6549 9.79521 10.7758 9.75027 10.8862C9.70532 10.9967 9.63036 11.0924 9.53387 11.1625C9.43738 11.2326 9.32321 11.2743 9.20426 11.2829C9.08531 11.2915 8.96633 11.2666 8.86077 11.2111L6.39355 9.91356L3.92504 11.2111C3.8195 11.2664 3.7006 11.2911 3.58175 11.2825C3.46291 11.2738 3.34886 11.2321 3.25247 11.162C3.15609 11.0919 3.08121 10.9963 3.03628 10.886C2.99136 10.7756 2.97818 10.6549 2.99823 10.5374L3.46931 7.78893L1.47251 5.84327C1.38705 5.76004 1.32659 5.65455 1.29797 5.53874C1.26935 5.42294 1.2737 5.30143 1.31055 5.18796C1.34739 5.0745 1.41526 4.97362 1.50646 4.89672C1.59766 4.81982 1.70856 4.76998 1.82662 4.75284L4.58595 4.35207L5.81956 1.85225Z" fill="url(#paint0_linear_303_243)"/>
<defs>
<linearGradient id="paint0_linear_303_243" x1="11.5057" y1="11.5045" x2="0.991215" y2="1.58251" gradientUnits="userSpaceOnUse">
<stop stop-color="#FF6F47"/>
<stop offset="1" stop-color="#FFCD0F"/>
</linearGradient>
</defs>
</svg>
